<?xml version="1.0" encoding="UTF-8" standalone="no"?>
<!DOCTYPE svg PUBLIC "-//W3C//DTD SVG 1.1//EN"
 "http://www.w3.org/Graphics/SVG/1.1/DTD/svg11.dtd">
<!-- Generated by graphviz version 2.43.0 (0)
 -->
<!-- Title: %3 Pages: 1 -->
<svg width="772pt" height="4148pt"
 viewBox="0.00 0.00 771.50 4148.00" xmlns="http://www.w3.org/2000/svg" xmlns:xlink="http://www.w3.org/1999/xlink">
<g id="graph0" class="graph" transform="scale(1 1) rotate(0) translate(4 4144)">
<title>%3</title>
<polygon fill="white" stroke="transparent" points="-4,4 -4,-4144 767.5,-4144 767.5,4 -4,4"/>
<!-- &#45;822639357111101797 -->
<g id="node1" class="node">
<title>&#45;822639357111101797</title>
<polygon fill="none" stroke="black" points="365,-4140 0,-4140 0,-4104 365,-4104 365,-4140"/>
<text text-anchor="middle" x="182.5" y="-4117" font-family="Helvetica,sans-Serif" font-size="20.00">Assign(Assign, fault, MapPartitions)</text>
</g>
<!-- &#45;8745567978385711838 -->
<g id="node2" class="node">
<title>&#45;8745567978385711838</title>
<polygon fill="none" stroke="black" points="434,-4068 171,-4068 171,-4032 434,-4032 434,-4068"/>
<text text-anchor="middle" x="302.5" y="-4045" font-family="Helvetica,sans-Serif" font-size="20.00">MapPartitions(Projection)</text>
</g>
<!-- &#45;8745567978385711838&#45;&gt;&#45;822639357111101797 -->
<g id="edge1" class="edge">
<title>&#45;8745567978385711838&#45;&gt;&#45;822639357111101797</title>
<path fill="none" stroke="black" d="M273.14,-4068.12C257.45,-4077.28 237.94,-4088.66 221.05,-4098.52"/>
<polygon fill="black" stroke="black" points="218.84,-4095.75 211.97,-4103.81 222.37,-4101.79 218.84,-4095.75"/>
</g>
<!-- &#45;1109397324744688272 -->
<g id="node3" class="node">
<title>&#45;1109397324744688272</title>
<polygon fill="none" stroke="black" points="554,-3996 131,-3996 131,-3960 554,-3960 554,-3996"/>
<text text-anchor="middle" x="342.5" y="-3973" font-family="Helvetica,sans-Serif" font-size="20.00">Projection(Assign, [&#39;A5_6&#39;, &#39;A5_7&#39;, &#39;A5_8&#39;])</text>
</g>
<!-- &#45;1109397324744688272&#45;&gt;&#45;8745567978385711838 -->
<g id="edge3" class="edge">
<title>&#45;1109397324744688272&#45;&gt;&#45;8745567978385711838</title>
<path fill="none" stroke="black" d="M332.61,-3996.3C328.01,-4004.36 322.44,-4014.11 317.35,-4023.02"/>
<polygon fill="black" stroke="black" points="314.2,-4021.48 312.27,-4031.9 320.27,-4024.95 314.2,-4021.48"/>
</g>
<!-- &#45;7282368466994430037 -->
<g id="node4" class="node">
<title>&#45;7282368466994430037</title>
<polygon fill="none" stroke="black" points="374.5,-3924 70.5,-3924 70.5,-3888 374.5,-3888 374.5,-3924"/>
<text text-anchor="middle" x="222.5" y="-3901" font-family="Helvetica,sans-Serif" font-size="20.00">Assign(Assign, A5_16, Apply)</text>
</g>
<!-- &#45;7282368466994430037&#45;&gt;&#45;822639357111101797 -->
<g id="edge2" class="edge">
<title>&#45;7282368466994430037&#45;&gt;&#45;822639357111101797</title>
<path fill="none" stroke="black" d="M165.25,-3924.04C148.17,-3932.09 131.39,-3943.65 121.5,-3960 94.56,-4004.57 132.54,-4063.05 159.56,-4095.86"/>
<polygon fill="black" stroke="black" points="157.01,-4098.26 166.15,-4103.62 162.35,-4093.73 157.01,-4098.26"/>
</g>
<!-- &#45;7282368466994430037&#45;&gt;&#45;1109397324744688272 -->
<g id="edge4" class="edge">
<title>&#45;7282368466994430037&#45;&gt;&#45;1109397324744688272</title>
<path fill="none" stroke="black" d="M251.86,-3924.12C267.55,-3933.28 287.06,-3944.66 303.95,-3954.52"/>
<polygon fill="black" stroke="black" points="302.63,-3957.79 313.03,-3959.81 306.16,-3951.75 302.63,-3957.79"/>
</g>
<!-- 6207490607563040359 -->
<g id="node5" class="node">
<title>6207490607563040359</title>
<polygon fill="none" stroke="black" points="394,-3852 209,-3852 209,-3816 394,-3816 394,-3852"/>
<text text-anchor="middle" x="301.5" y="-3829" font-family="Helvetica,sans-Serif" font-size="20.00">Apply(Projection)</text>
</g>
<!-- 6207490607563040359&#45;&gt;&#45;7282368466994430037 -->
<g id="edge6" class="edge">
<title>6207490607563040359&#45;&gt;&#45;7282368466994430037</title>
<path fill="none" stroke="black" d="M281.97,-3852.3C272.12,-3861.03 260.01,-3871.76 249.3,-3881.25"/>
<polygon fill="black" stroke="black" points="246.97,-3878.64 241.8,-3887.9 251.61,-3883.88 246.97,-3878.64"/>
</g>
<!-- &#45;2292020875336847449 -->
<g id="node6" class="node">
<title>&#45;2292020875336847449</title>
<polygon fill="none" stroke="black" points="450.5,-3780 190.5,-3780 190.5,-3744 450.5,-3744 450.5,-3780"/>
<text text-anchor="middle" x="320.5" y="-3757" font-family="Helvetica,sans-Serif" font-size="20.00">Projection(Assign, value)</text>
</g>
<!-- &#45;2292020875336847449&#45;&gt;6207490607563040359 -->
<g id="edge7" class="edge">
<title>&#45;2292020875336847449&#45;&gt;6207490607563040359</title>
<path fill="none" stroke="black" d="M315.8,-3780.3C313.69,-3788.1 311.14,-3797.49 308.78,-3806.17"/>
<polygon fill="black" stroke="black" points="305.38,-3805.33 306.14,-3815.9 312.14,-3807.16 305.38,-3805.33"/>
</g>
<!-- &#45;9055469305251176912 -->
<g id="node7" class="node">
<title>&#45;9055469305251176912</title>
<polygon fill="none" stroke="black" points="393.5,-3708 89.5,-3708 89.5,-3672 393.5,-3672 393.5,-3708"/>
<text text-anchor="middle" x="241.5" y="-3685" font-family="Helvetica,sans-Serif" font-size="20.00">Assign(Assign, A5_15, Apply)</text>
</g>
<!-- &#45;9055469305251176912&#45;&gt;&#45;7282368466994430037 -->
<g id="edge5" class="edge">
<title>&#45;9055469305251176912&#45;&gt;&#45;7282368466994430037</title>
<path fill="none" stroke="black" d="M213.24,-3708.03C201.07,-3717.04 188.13,-3729.3 181.5,-3744 161.1,-3789.23 186.63,-3846.37 205.57,-3878.99"/>
<polygon fill="black" stroke="black" points="202.78,-3881.14 210.94,-3887.9 208.78,-3877.53 202.78,-3881.14"/>
</g>
<!-- &#45;9055469305251176912&#45;&gt;&#45;2292020875336847449 -->
<g id="edge8" class="edge">
<title>&#45;9055469305251176912&#45;&gt;&#45;2292020875336847449</title>
<path fill="none" stroke="black" d="M261.03,-3708.3C270.88,-3717.03 282.99,-3727.76 293.7,-3737.25"/>
<polygon fill="black" stroke="black" points="291.39,-3739.88 301.2,-3743.9 296.03,-3734.64 291.39,-3739.88"/>
</g>
<!-- 4448385947464120515 -->
<g id="node8" class="node">
<title>4448385947464120515</title>
<polygon fill="none" stroke="black" points="413,-3636 228,-3636 228,-3600 413,-3600 413,-3636"/>
<text text-anchor="middle" x="320.5" y="-3613" font-family="Helvetica,sans-Serif" font-size="20.00">Apply(Projection)</text>
</g>
<!-- 4448385947464120515&#45;&gt;&#45;9055469305251176912 -->
<g id="edge9" class="edge">
<title>4448385947464120515&#45;&gt;&#45;9055469305251176912</title>
<path fill="none" stroke="black" d="M300.97,-3636.3C291.12,-3645.03 279.01,-3655.76 268.3,-3665.25"/>
<polygon fill="black" stroke="black" points="265.97,-3662.64 260.8,-3671.9 270.61,-3667.88 265.97,-3662.64"/>
</g>
<!-- &#45;1092866456465528841 -->
<g id="node9" class="node">
<title>&#45;1092866456465528841</title>
<polygon fill="none" stroke="black" points="469.5,-3564 209.5,-3564 209.5,-3528 469.5,-3528 469.5,-3564"/>
<text text-anchor="middle" x="339.5" y="-3541" font-family="Helvetica,sans-Serif" font-size="20.00">Projection(Assign, value)</text>
</g>
<!-- &#45;1092866456465528841&#45;&gt;4448385947464120515 -->
<g id="edge11" class="edge">
<title>&#45;1092866456465528841&#45;&gt;4448385947464120515</title>
<path fill="none" stroke="black" d="M334.8,-3564.3C332.69,-3572.1 330.14,-3581.49 327.78,-3590.17"/>
<polygon fill="black" stroke="black" points="324.38,-3589.33 325.14,-3599.9 331.14,-3591.16 324.38,-3589.33"/>
</g>
<!-- 5850834645990252846 -->
<g id="node10" class="node">
<title>5850834645990252846</title>
<polygon fill="none" stroke="black" points="412.5,-3492 108.5,-3492 108.5,-3456 412.5,-3456 412.5,-3492"/>
<text text-anchor="middle" x="260.5" y="-3469" font-family="Helvetica,sans-Serif" font-size="20.00">Assign(Assign, A5_14, Apply)</text>
</g>
<!-- 5850834645990252846&#45;&gt;&#45;9055469305251176912 -->
<g id="edge10" class="edge">
<title>5850834645990252846&#45;&gt;&#45;9055469305251176912</title>
<path fill="none" stroke="black" d="M232.24,-3492.03C220.07,-3501.04 207.13,-3513.3 200.5,-3528 180.1,-3573.23 205.63,-3630.37 224.57,-3662.99"/>
<polygon fill="black" stroke="black" points="221.78,-3665.14 229.94,-3671.9 227.78,-3661.53 221.78,-3665.14"/>
</g>
<!-- 5850834645990252846&#45;&gt;&#45;1092866456465528841 -->
<g id="edge12" class="edge">
<title>5850834645990252846&#45;&gt;&#45;1092866456465528841</title>
<path fill="none" stroke="black" d="M280.03,-3492.3C289.88,-3501.03 301.99,-3511.76 312.7,-3521.25"/>
<polygon fill="black" stroke="black" points="310.39,-3523.88 320.2,-3527.9 315.03,-3518.64 310.39,-3523.88"/>
</g>
<!-- 573327203544399566 -->
<g id="node11" class="node">
<title>573327203544399566</title>
<polygon fill="none" stroke="black" points="432,-3420 247,-3420 247,-3384 432,-3384 432,-3420"/>
<text text-anchor="middle" x="339.5" y="-3397" font-family="Helvetica,sans-Serif" font-size="20.00">Apply(Projection)</text>
</g>
<!-- 573327203544399566&#45;&gt;5850834645990252846 -->
<g id="edge14" class="edge">
<title>573327203544399566&#45;&gt;5850834645990252846</title>
<path fill="none" stroke="black" d="M319.97,-3420.3C310.12,-3429.03 298.01,-3439.76 287.3,-3449.25"/>
<polygon fill="black" stroke="black" points="284.97,-3446.64 279.8,-3455.9 289.61,-3451.88 284.97,-3446.64"/>
</g>
<!-- 2253399591424657163 -->
<g id="node12" class="node">
<title>2253399591424657163</title>
<polygon fill="none" stroke="black" points="488.5,-3348 228.5,-3348 228.5,-3312 488.5,-3312 488.5,-3348"/>
<text text-anchor="middle" x="358.5" y="-3325" font-family="Helvetica,sans-Serif" font-size="20.00">Projection(Assign, value)</text>
</g>
<!-- 2253399591424657163&#45;&gt;573327203544399566 -->
<g id="edge15" class="edge">
<title>2253399591424657163&#45;&gt;573327203544399566</title>
<path fill="none" stroke="black" d="M353.8,-3348.3C351.69,-3356.1 349.14,-3365.49 346.78,-3374.17"/>
<polygon fill="black" stroke="black" points="343.38,-3373.33 344.14,-3383.9 350.14,-3375.16 343.38,-3373.33"/>
</g>
<!-- 2754259202043038290 -->
<g id="node13" class="node">
<title>2754259202043038290</title>
<polygon fill="none" stroke="black" points="431.5,-3276 127.5,-3276 127.5,-3240 431.5,-3240 431.5,-3276"/>
<text text-anchor="middle" x="279.5" y="-3253" font-family="Helvetica,sans-Serif" font-size="20.00">Assign(Assign, A5_13, Apply)</text>
</g>
<!-- 2754259202043038290&#45;&gt;5850834645990252846 -->
<g id="edge13" class="edge">
<title>2754259202043038290&#45;&gt;5850834645990252846</title>
<path fill="none" stroke="black" d="M251.24,-3276.03C239.07,-3285.04 226.13,-3297.3 219.5,-3312 199.1,-3357.23 224.63,-3414.37 243.57,-3446.99"/>
<polygon fill="black" stroke="black" points="240.78,-3449.14 248.94,-3455.9 246.78,-3445.53 240.78,-3449.14"/>
</g>
<!-- 2754259202043038290&#45;&gt;2253399591424657163 -->
<g id="edge16" class="edge">
<title>2754259202043038290&#45;&gt;2253399591424657163</title>
<path fill="none" stroke="black" d="M299.03,-3276.3C308.88,-3285.03 320.99,-3295.76 331.7,-3305.25"/>
<polygon fill="black" stroke="black" points="329.39,-3307.88 339.2,-3311.9 334.03,-3302.64 329.39,-3307.88"/>
</g>
<!-- 7741561387167227504 -->
<g id="node14" class="node">
<title>7741561387167227504</title>
<polygon fill="none" stroke="black" points="451,-3204 266,-3204 266,-3168 451,-3168 451,-3204"/>
<text text-anchor="middle" x="358.5" y="-3181" font-family="Helvetica,sans-Serif" font-size="20.00">Apply(Projection)</text>
</g>
<!-- 7741561387167227504&#45;&gt;2754259202043038290 -->
<g id="edge17" class="edge">
<title>7741561387167227504&#45;&gt;2754259202043038290</title>
<path fill="none" stroke="black" d="M338.97,-3204.3C329.12,-3213.03 317.01,-3223.76 306.3,-3233.25"/>
<polygon fill="black" stroke="black" points="303.97,-3230.64 298.8,-3239.9 308.61,-3235.88 303.97,-3230.64"/>
</g>
<!-- 6298662906723486511 -->
<g id="node15" class="node">
<title>6298662906723486511</title>
<polygon fill="none" stroke="black" points="507.5,-3132 247.5,-3132 247.5,-3096 507.5,-3096 507.5,-3132"/>
<text text-anchor="middle" x="377.5" y="-3109" font-family="Helvetica,sans-Serif" font-size="20.00">Projection(Assign, value)</text>
</g>
<!-- 6298662906723486511&#45;&gt;7741561387167227504 -->
<g id="edge19" class="edge">
<title>6298662906723486511&#45;&gt;7741561387167227504</title>
<path fill="none" stroke="black" d="M372.8,-3132.3C370.69,-3140.1 368.14,-3149.49 365.78,-3158.17"/>
<polygon fill="black" stroke="black" points="362.38,-3157.33 363.14,-3167.9 369.14,-3159.16 362.38,-3157.33"/>
</g>
<!-- &#45;2019915743959853538 -->
<g id="node16" class="node">
<title>&#45;2019915743959853538</title>
<polygon fill="none" stroke="black" points="450.5,-3060 146.5,-3060 146.5,-3024 450.5,-3024 450.5,-3060"/>
<text text-anchor="middle" x="298.5" y="-3037" font-family="Helvetica,sans-Serif" font-size="20.00">Assign(Assign, A5_12, Apply)</text>
</g>
<!-- &#45;2019915743959853538&#45;&gt;2754259202043038290 -->
<g id="edge18" class="edge">
<title>&#45;2019915743959853538&#45;&gt;2754259202043038290</title>
<path fill="none" stroke="black" d="M270.24,-3060.03C258.07,-3069.04 245.13,-3081.3 238.5,-3096 218.1,-3141.23 243.63,-3198.37 262.57,-3230.99"/>
<polygon fill="black" stroke="black" points="259.78,-3233.14 267.94,-3239.9 265.78,-3229.53 259.78,-3233.14"/>
</g>
<!-- &#45;2019915743959853538&#45;&gt;6298662906723486511 -->
<g id="edge20" class="edge">
<title>&#45;2019915743959853538&#45;&gt;6298662906723486511</title>
<path fill="none" stroke="black" d="M318.03,-3060.3C327.88,-3069.03 339.99,-3079.76 350.7,-3089.25"/>
<polygon fill="black" stroke="black" points="348.39,-3091.88 358.2,-3095.9 353.03,-3086.64 348.39,-3091.88"/>
</g>
<!-- 2603055464128680304 -->
<g id="node17" class="node">
<title>2603055464128680304</title>
<polygon fill="none" stroke="black" points="470,-2988 285,-2988 285,-2952 470,-2952 470,-2988"/>
<text text-anchor="middle" x="377.5" y="-2965" font-family="Helvetica,sans-Serif" font-size="20.00">Apply(Projection)</text>
</g>
<!-- 2603055464128680304&#45;&gt;&#45;2019915743959853538 -->
<g id="edge21" class="edge">
<title>2603055464128680304&#45;&gt;&#45;2019915743959853538</title>
<path fill="none" stroke="black" d="M357.97,-2988.3C348.12,-2997.03 336.01,-3007.76 325.3,-3017.25"/>
<polygon fill="black" stroke="black" points="322.97,-3014.64 317.8,-3023.9 327.61,-3019.88 322.97,-3014.64"/>
</g>
<!-- 231834657975781001 -->
<g id="node18" class="node">
<title>231834657975781001</title>
<polygon fill="none" stroke="black" points="526.5,-2916 266.5,-2916 266.5,-2880 526.5,-2880 526.5,-2916"/>
<text text-anchor="middle" x="396.5" y="-2893" font-family="Helvetica,sans-Serif" font-size="20.00">Projection(Assign, value)</text>
</g>
<!-- 231834657975781001&#45;&gt;2603055464128680304 -->
<g id="edge23" class="edge">
<title>231834657975781001&#45;&gt;2603055464128680304</title>
<path fill="none" stroke="black" d="M391.8,-2916.3C389.69,-2924.1 387.14,-2933.49 384.78,-2942.17"/>
<polygon fill="black" stroke="black" points="381.38,-2941.33 382.14,-2951.9 388.14,-2943.16 381.38,-2941.33"/>
</g>
<!-- &#45;1207129523152417269 -->
<g id="node19" class="node">
<title>&#45;1207129523152417269</title>
<polygon fill="none" stroke="black" points="469.5,-2844 165.5,-2844 165.5,-2808 469.5,-2808 469.5,-2844"/>
<text text-anchor="middle" x="317.5" y="-2821" font-family="Helvetica,sans-Serif" font-size="20.00">Assign(Assign, A5_11, Apply)</text>
</g>
<!-- &#45;1207129523152417269&#45;&gt;&#45;2019915743959853538 -->
<g id="edge22" class="edge">
<title>&#45;1207129523152417269&#45;&gt;&#45;2019915743959853538</title>
<path fill="none" stroke="black" d="M289.24,-2844.03C277.07,-2853.04 264.13,-2865.3 257.5,-2880 237.1,-2925.23 262.63,-2982.37 281.57,-3014.99"/>
<polygon fill="black" stroke="black" points="278.78,-3017.14 286.94,-3023.9 284.78,-3013.53 278.78,-3017.14"/>
</g>
<!-- &#45;1207129523152417269&#45;&gt;231834657975781001 -->
<g id="edge24" class="edge">
<title>&#45;1207129523152417269&#45;&gt;231834657975781001</title>
<path fill="none" stroke="black" d="M337.03,-2844.3C346.88,-2853.03 358.99,-2863.76 369.7,-2873.25"/>
<polygon fill="black" stroke="black" points="367.39,-2875.88 377.2,-2879.9 372.03,-2870.64 367.39,-2875.88"/>
</g>
<!-- 5679977249462410212 -->
<g id="node20" class="node">
<title>5679977249462410212</title>
<polygon fill="none" stroke="black" points="489,-2772 304,-2772 304,-2736 489,-2736 489,-2772"/>
<text text-anchor="middle" x="396.5" y="-2749" font-family="Helvetica,sans-Serif" font-size="20.00">Apply(Projection)</text>
</g>
<!-- 5679977249462410212&#45;&gt;&#45;1207129523152417269 -->
<g id="edge25" class="edge">
<title>5679977249462410212&#45;&gt;&#45;1207129523152417269</title>
<path fill="none" stroke="black" d="M376.97,-2772.3C367.12,-2781.03 355.01,-2791.76 344.3,-2801.25"/>
<polygon fill="black" stroke="black" points="341.97,-2798.64 336.8,-2807.9 346.61,-2803.88 341.97,-2798.64"/>
</g>
<!-- 6684350425263018723 -->
<g id="node21" class="node">
<title>6684350425263018723</title>
<polygon fill="none" stroke="black" points="545.5,-2700 285.5,-2700 285.5,-2664 545.5,-2664 545.5,-2700"/>
<text text-anchor="middle" x="415.5" y="-2677" font-family="Helvetica,sans-Serif" font-size="20.00">Projection(Assign, value)</text>
</g>
<!-- 6684350425263018723&#45;&gt;5679977249462410212 -->
<g id="edge27" class="edge">
<title>6684350425263018723&#45;&gt;5679977249462410212</title>
<path fill="none" stroke="black" d="M410.8,-2700.3C408.69,-2708.1 406.14,-2717.49 403.78,-2726.17"/>
<polygon fill="black" stroke="black" points="400.38,-2725.33 401.14,-2735.9 407.14,-2727.16 400.38,-2725.33"/>
</g>
<!-- &#45;7250932390577270732 -->
<g id="node22" class="node">
<title>&#45;7250932390577270732</title>
<polygon fill="none" stroke="black" points="488.5,-2628 184.5,-2628 184.5,-2592 488.5,-2592 488.5,-2628"/>
<text text-anchor="middle" x="336.5" y="-2605" font-family="Helvetica,sans-Serif" font-size="20.00">Assign(Assign, A5_10, Apply)</text>
</g>
<!-- &#45;7250932390577270732&#45;&gt;&#45;1207129523152417269 -->
<g id="edge26" class="edge">
<title>&#45;7250932390577270732&#45;&gt;&#45;1207129523152417269</title>
<path fill="none" stroke="black" d="M308.24,-2628.03C296.07,-2637.04 283.13,-2649.3 276.5,-2664 256.1,-2709.23 281.63,-2766.37 300.57,-2798.99"/>
<polygon fill="black" stroke="black" points="297.78,-2801.14 305.94,-2807.9 303.78,-2797.53 297.78,-2801.14"/>
</g>
<!-- &#45;7250932390577270732&#45;&gt;6684350425263018723 -->
<g id="edge28" class="edge">
<title>&#45;7250932390577270732&#45;&gt;6684350425263018723</title>
<path fill="none" stroke="black" d="M356.03,-2628.3C365.88,-2637.03 377.99,-2647.76 388.7,-2657.25"/>
<polygon fill="black" stroke="black" points="386.39,-2659.88 396.2,-2663.9 391.03,-2654.64 386.39,-2659.88"/>
</g>
<!-- &#45;3150386369722073096 -->
<g id="node23" class="node">
<title>&#45;3150386369722073096</title>
<polygon fill="none" stroke="black" points="508,-2556 323,-2556 323,-2520 508,-2520 508,-2556"/>
<text text-anchor="middle" x="415.5" y="-2533" font-family="Helvetica,sans-Serif" font-size="20.00">Apply(Projection)</text>
</g>
<!-- &#45;3150386369722073096&#45;&gt;&#45;7250932390577270732 -->
<g id="edge29" class="edge">
<title>&#45;3150386369722073096&#45;&gt;&#45;7250932390577270732</title>
<path fill="none" stroke="black" d="M395.97,-2556.3C386.12,-2565.03 374.01,-2575.76 363.3,-2585.25"/>
<polygon fill="black" stroke="black" points="360.97,-2582.64 355.8,-2591.9 365.61,-2587.88 360.97,-2582.64"/>
</g>
<!-- 6893893234912994399 -->
<g id="node24" class="node">
<title>6893893234912994399</title>
<polygon fill="none" stroke="black" points="564.5,-2484 304.5,-2484 304.5,-2448 564.5,-2448 564.5,-2484"/>
<text text-anchor="middle" x="434.5" y="-2461" font-family="Helvetica,sans-Serif" font-size="20.00">Projection(Assign, value)</text>
</g>
<!-- 6893893234912994399&#45;&gt;&#45;3150386369722073096 -->
<g id="edge31" class="edge">
<title>6893893234912994399&#45;&gt;&#45;3150386369722073096</title>
<path fill="none" stroke="black" d="M429.8,-2484.3C427.69,-2492.1 425.14,-2501.49 422.78,-2510.17"/>
<polygon fill="black" stroke="black" points="419.38,-2509.33 420.14,-2519.9 426.14,-2511.16 419.38,-2509.33"/>
</g>
<!-- &#45;4524778017330499729 -->
<g id="node25" class="node">
<title>&#45;4524778017330499729</title>
<polygon fill="none" stroke="black" points="501,-2412 210,-2412 210,-2376 501,-2376 501,-2412"/>
<text text-anchor="middle" x="355.5" y="-2389" font-family="Helvetica,sans-Serif" font-size="20.00">Assign(Assign, A5_9, Apply)</text>
</g>
<!-- &#45;4524778017330499729&#45;&gt;&#45;7250932390577270732 -->
<g id="edge30" class="edge">
<title>&#45;4524778017330499729&#45;&gt;&#45;7250932390577270732</title>
<path fill="none" stroke="black" d="M327.24,-2412.03C315.07,-2421.04 302.13,-2433.3 295.5,-2448 275.1,-2493.23 300.63,-2550.37 319.57,-2582.99"/>
<polygon fill="black" stroke="black" points="316.78,-2585.14 324.94,-2591.9 322.78,-2581.53 316.78,-2585.14"/>
</g>
<!-- &#45;4524778017330499729&#45;&gt;6893893234912994399 -->
<g id="edge32" class="edge">
<title>&#45;4524778017330499729&#45;&gt;6893893234912994399</title>
<path fill="none" stroke="black" d="M375.03,-2412.3C384.88,-2421.03 396.99,-2431.76 407.7,-2441.25"/>
<polygon fill="black" stroke="black" points="405.39,-2443.88 415.2,-2447.9 410.03,-2438.64 405.39,-2443.88"/>
</g>
<!-- &#45;6494674235720201798 -->
<g id="node26" class="node">
<title>&#45;6494674235720201798</title>
<polygon fill="none" stroke="black" points="527,-2340 342,-2340 342,-2304 527,-2304 527,-2340"/>
<text text-anchor="middle" x="434.5" y="-2317" font-family="Helvetica,sans-Serif" font-size="20.00">Apply(Projection)</text>
</g>
<!-- &#45;6494674235720201798&#45;&gt;&#45;4524778017330499729 -->
<g id="edge33" class="edge">
<title>&#45;6494674235720201798&#45;&gt;&#45;4524778017330499729</title>
<path fill="none" stroke="black" d="M414.97,-2340.3C405.12,-2349.03 393.01,-2359.76 382.3,-2369.25"/>
<polygon fill="black" stroke="black" points="379.97,-2366.64 374.8,-2375.9 384.61,-2371.88 379.97,-2366.64"/>
</g>
<!-- 5803186541952240966 -->
<g id="node27" class="node">
<title>5803186541952240966</title>
<polygon fill="none" stroke="black" points="583.5,-2268 323.5,-2268 323.5,-2232 583.5,-2232 583.5,-2268"/>
<text text-anchor="middle" x="453.5" y="-2245" font-family="Helvetica,sans-Serif" font-size="20.00">Projection(Assign, value)</text>
</g>
<!-- 5803186541952240966&#45;&gt;&#45;6494674235720201798 -->
<g id="edge35" class="edge">
<title>5803186541952240966&#45;&gt;&#45;6494674235720201798</title>
<path fill="none" stroke="black" d="M448.8,-2268.3C446.69,-2276.1 444.14,-2285.49 441.78,-2294.17"/>
<polygon fill="black" stroke="black" points="438.38,-2293.33 439.14,-2303.9 445.14,-2295.16 438.38,-2293.33"/>
</g>
<!-- 2683591852783959854 -->
<g id="node28" class="node">
<title>2683591852783959854</title>
<polygon fill="none" stroke="black" points="520,-2196 229,-2196 229,-2160 520,-2160 520,-2196"/>
<text text-anchor="middle" x="374.5" y="-2173" font-family="Helvetica,sans-Serif" font-size="20.00">Assign(Assign, A5_8, Apply)</text>
</g>
<!-- 2683591852783959854&#45;&gt;&#45;4524778017330499729 -->
<g id="edge34" class="edge">
<title>2683591852783959854&#45;&gt;&#45;4524778017330499729</title>
<path fill="none" stroke="black" d="M346.24,-2196.03C334.07,-2205.04 321.13,-2217.3 314.5,-2232 294.1,-2277.23 319.63,-2334.37 338.57,-2366.99"/>
<polygon fill="black" stroke="black" points="335.78,-2369.14 343.94,-2375.9 341.78,-2365.53 335.78,-2369.14"/>
</g>
<!-- 2683591852783959854&#45;&gt;5803186541952240966 -->
<g id="edge36" class="edge">
<title>2683591852783959854&#45;&gt;5803186541952240966</title>
<path fill="none" stroke="black" d="M394.03,-2196.3C403.88,-2205.03 415.99,-2215.76 426.7,-2225.25"/>
<polygon fill="black" stroke="black" points="424.39,-2227.88 434.2,-2231.9 429.03,-2222.64 424.39,-2227.88"/>
</g>
<!-- 3007294604551656901 -->
<g id="node29" class="node">
<title>3007294604551656901</title>
<polygon fill="none" stroke="black" points="546,-2124 361,-2124 361,-2088 546,-2088 546,-2124"/>
<text text-anchor="middle" x="453.5" y="-2101" font-family="Helvetica,sans-Serif" font-size="20.00">Apply(Projection)</text>
</g>
<!-- 3007294604551656901&#45;&gt;2683591852783959854 -->
<g id="edge37" class="edge">
<title>3007294604551656901&#45;&gt;2683591852783959854</title>
<path fill="none" stroke="black" d="M433.97,-2124.3C424.12,-2133.03 412.01,-2143.76 401.3,-2153.25"/>
<polygon fill="black" stroke="black" points="398.97,-2150.64 393.8,-2159.9 403.61,-2155.88 398.97,-2150.64"/>
</g>
<!-- 8647194148054848213 -->
<g id="node30" class="node">
<title>8647194148054848213</title>
<polygon fill="none" stroke="black" points="602.5,-2052 342.5,-2052 342.5,-2016 602.5,-2016 602.5,-2052"/>
<text text-anchor="middle" x="472.5" y="-2029" font-family="Helvetica,sans-Serif" font-size="20.00">Projection(Assign, value)</text>
</g>
<!-- 8647194148054848213&#45;&gt;3007294604551656901 -->
<g id="edge39" class="edge">
<title>8647194148054848213&#45;&gt;3007294604551656901</title>
<path fill="none" stroke="black" d="M467.8,-2052.3C465.69,-2060.1 463.14,-2069.49 460.78,-2078.17"/>
<polygon fill="black" stroke="black" points="457.38,-2077.33 458.14,-2087.9 464.14,-2079.16 457.38,-2077.33"/>
</g>
<!-- 7492354341063363053 -->
<g id="node31" class="node">
<title>7492354341063363053</title>
<polygon fill="none" stroke="black" points="539,-1980 248,-1980 248,-1944 539,-1944 539,-1980"/>
<text text-anchor="middle" x="393.5" y="-1957" font-family="Helvetica,sans-Serif" font-size="20.00">Assign(Assign, A5_7, Apply)</text>
</g>
<!-- 7492354341063363053&#45;&gt;2683591852783959854 -->
<g id="edge38" class="edge">
<title>7492354341063363053&#45;&gt;2683591852783959854</title>
<path fill="none" stroke="black" d="M365.24,-1980.03C353.07,-1989.04 340.13,-2001.3 333.5,-2016 313.1,-2061.23 338.63,-2118.37 357.57,-2150.99"/>
<polygon fill="black" stroke="black" points="354.78,-2153.14 362.94,-2159.9 360.78,-2149.53 354.78,-2153.14"/>
</g>
<!-- 7492354341063363053&#45;&gt;8647194148054848213 -->
<g id="edge40" class="edge">
<title>7492354341063363053&#45;&gt;8647194148054848213</title>
<path fill="none" stroke="black" d="M413.03,-1980.3C422.88,-1989.03 434.99,-1999.76 445.7,-2009.25"/>
<polygon fill="black" stroke="black" points="443.39,-2011.88 453.2,-2015.9 448.03,-2006.64 443.39,-2011.88"/>
</g>
<!-- 518044072365504345 -->
<g id="node32" class="node">
<title>518044072365504345</title>
<polygon fill="none" stroke="black" points="565,-1908 380,-1908 380,-1872 565,-1872 565,-1908"/>
<text text-anchor="middle" x="472.5" y="-1885" font-family="Helvetica,sans-Serif" font-size="20.00">Apply(Projection)</text>
</g>
<!-- 518044072365504345&#45;&gt;7492354341063363053 -->
<g id="edge42" class="edge">
<title>518044072365504345&#45;&gt;7492354341063363053</title>
<path fill="none" stroke="black" d="M452.97,-1908.3C443.12,-1917.03 431.01,-1927.76 420.3,-1937.25"/>
<polygon fill="black" stroke="black" points="417.97,-1934.64 412.8,-1943.9 422.61,-1939.88 417.97,-1934.64"/>
</g>
<!-- &#45;3398632223010726379 -->
<g id="node33" class="node">
<title>&#45;3398632223010726379</title>
<polygon fill="none" stroke="black" points="621.5,-1836 361.5,-1836 361.5,-1800 621.5,-1800 621.5,-1836"/>
<text text-anchor="middle" x="491.5" y="-1813" font-family="Helvetica,sans-Serif" font-size="20.00">Projection(Assign, value)</text>
</g>
<!-- &#45;3398632223010726379&#45;&gt;518044072365504345 -->
<g id="edge43" class="edge">
<title>&#45;3398632223010726379&#45;&gt;518044072365504345</title>
<path fill="none" stroke="black" d="M486.8,-1836.3C484.69,-1844.1 482.14,-1853.49 479.78,-1862.17"/>
<polygon fill="black" stroke="black" points="476.38,-1861.33 477.14,-1871.9 483.14,-1863.16 476.38,-1861.33"/>
</g>
<!-- 2612123205959413888 -->
<g id="node34" class="node">
<title>2612123205959413888</title>
<polygon fill="none" stroke="black" points="558,-1764 267,-1764 267,-1728 558,-1728 558,-1764"/>
<text text-anchor="middle" x="412.5" y="-1741" font-family="Helvetica,sans-Serif" font-size="20.00">Assign(Assign, A5_6, Apply)</text>
</g>
<!-- 2612123205959413888&#45;&gt;7492354341063363053 -->
<g id="edge41" class="edge">
<title>2612123205959413888&#45;&gt;7492354341063363053</title>
<path fill="none" stroke="black" d="M384.24,-1764.03C372.07,-1773.04 359.13,-1785.3 352.5,-1800 332.1,-1845.23 357.63,-1902.37 376.57,-1934.99"/>
<polygon fill="black" stroke="black" points="373.78,-1937.14 381.94,-1943.9 379.78,-1933.53 373.78,-1937.14"/>
</g>
<!-- 2612123205959413888&#45;&gt;&#45;3398632223010726379 -->
<g id="edge44" class="edge">
<title>2612123205959413888&#45;&gt;&#45;3398632223010726379</title>
<path fill="none" stroke="black" d="M432.03,-1764.3C441.88,-1773.03 453.99,-1783.76 464.7,-1793.25"/>
<polygon fill="black" stroke="black" points="462.39,-1795.88 472.2,-1799.9 467.03,-1790.64 462.39,-1795.88"/>
</g>
<!-- &#45;5643043805416741402 -->
<g id="node35" class="node">
<title>&#45;5643043805416741402</title>
<polygon fill="none" stroke="black" points="584,-1692 399,-1692 399,-1656 584,-1656 584,-1692"/>
<text text-anchor="middle" x="491.5" y="-1669" font-family="Helvetica,sans-Serif" font-size="20.00">Apply(Projection)</text>
</g>
<!-- &#45;5643043805416741402&#45;&gt;2612123205959413888 -->
<g id="edge45" class="edge">
<title>&#45;5643043805416741402&#45;&gt;2612123205959413888</title>
<path fill="none" stroke="black" d="M471.97,-1692.3C462.12,-1701.03 450.01,-1711.76 439.3,-1721.25"/>
<polygon fill="black" stroke="black" points="436.97,-1718.64 431.8,-1727.9 441.61,-1723.88 436.97,-1718.64"/>
</g>
<!-- &#45;6616663189393008930 -->
<g id="node36" class="node">
<title>&#45;6616663189393008930</title>
<polygon fill="none" stroke="black" points="640.5,-1620 380.5,-1620 380.5,-1584 640.5,-1584 640.5,-1620"/>
<text text-anchor="middle" x="510.5" y="-1597" font-family="Helvetica,sans-Serif" font-size="20.00">Projection(Assign, value)</text>
</g>
<!-- &#45;6616663189393008930&#45;&gt;&#45;5643043805416741402 -->
<g id="edge47" class="edge">
<title>&#45;6616663189393008930&#45;&gt;&#45;5643043805416741402</title>
<path fill="none" stroke="black" d="M505.8,-1620.3C503.69,-1628.1 501.14,-1637.49 498.78,-1646.17"/>
<polygon fill="black" stroke="black" points="495.38,-1645.33 496.14,-1655.9 502.14,-1647.16 495.38,-1645.33"/>
</g>
<!-- &#45;6268008682844225417 -->
<g id="node37" class="node">
<title>&#45;6268008682844225417</title>
<polygon fill="none" stroke="black" points="577,-1548 286,-1548 286,-1512 577,-1512 577,-1548"/>
<text text-anchor="middle" x="431.5" y="-1525" font-family="Helvetica,sans-Serif" font-size="20.00">Assign(Assign, A5_5, Apply)</text>
</g>
<!-- &#45;6268008682844225417&#45;&gt;2612123205959413888 -->
<g id="edge46" class="edge">
<title>&#45;6268008682844225417&#45;&gt;2612123205959413888</title>
<path fill="none" stroke="black" d="M403.24,-1548.03C391.07,-1557.04 378.13,-1569.3 371.5,-1584 351.1,-1629.23 376.63,-1686.37 395.57,-1718.99"/>
<polygon fill="black" stroke="black" points="392.78,-1721.14 400.94,-1727.9 398.78,-1717.53 392.78,-1721.14"/>
</g>
<!-- &#45;6268008682844225417&#45;&gt;&#45;6616663189393008930 -->
<g id="edge48" class="edge">
<title>&#45;6268008682844225417&#45;&gt;&#45;6616663189393008930</title>
<path fill="none" stroke="black" d="M451.03,-1548.3C460.88,-1557.03 472.99,-1567.76 483.7,-1577.25"/>
<polygon fill="black" stroke="black" points="481.39,-1579.88 491.2,-1583.9 486.03,-1574.64 481.39,-1579.88"/>
</g>
<!-- 2832129562843871736 -->
<g id="node38" class="node">
<title>2832129562843871736</title>
<polygon fill="none" stroke="black" points="603,-1476 418,-1476 418,-1440 603,-1440 603,-1476"/>
<text text-anchor="middle" x="510.5" y="-1453" font-family="Helvetica,sans-Serif" font-size="20.00">Apply(Projection)</text>
</g>
<!-- 2832129562843871736&#45;&gt;&#45;6268008682844225417 -->
<g id="edge49" class="edge">
<title>2832129562843871736&#45;&gt;&#45;6268008682844225417</title>
<path fill="none" stroke="black" d="M490.97,-1476.3C481.12,-1485.03 469.01,-1495.76 458.3,-1505.25"/>
<polygon fill="black" stroke="black" points="455.97,-1502.64 450.8,-1511.9 460.61,-1507.88 455.97,-1502.64"/>
</g>
<!-- 7631780582835109646 -->
<g id="node39" class="node">
<title>7631780582835109646</title>
<polygon fill="none" stroke="black" points="659.5,-1404 399.5,-1404 399.5,-1368 659.5,-1368 659.5,-1404"/>
<text text-anchor="middle" x="529.5" y="-1381" font-family="Helvetica,sans-Serif" font-size="20.00">Projection(Assign, value)</text>
</g>
<!-- 7631780582835109646&#45;&gt;2832129562843871736 -->
<g id="edge51" class="edge">
<title>7631780582835109646&#45;&gt;2832129562843871736</title>
<path fill="none" stroke="black" d="M524.8,-1404.3C522.69,-1412.1 520.14,-1421.49 517.78,-1430.17"/>
<polygon fill="black" stroke="black" points="514.38,-1429.33 515.14,-1439.9 521.14,-1431.16 514.38,-1429.33"/>
</g>
<!-- 2638937102817859916 -->
<g id="node40" class="node">
<title>2638937102817859916</title>
<polygon fill="none" stroke="black" points="596,-1332 305,-1332 305,-1296 596,-1296 596,-1332"/>
<text text-anchor="middle" x="450.5" y="-1309" font-family="Helvetica,sans-Serif" font-size="20.00">Assign(Assign, A5_4, Apply)</text>
</g>
<!-- 2638937102817859916&#45;&gt;&#45;6268008682844225417 -->
<g id="edge50" class="edge">
<title>2638937102817859916&#45;&gt;&#45;6268008682844225417</title>
<path fill="none" stroke="black" d="M422.24,-1332.03C410.07,-1341.04 397.13,-1353.3 390.5,-1368 370.1,-1413.23 395.63,-1470.37 414.57,-1502.99"/>
<polygon fill="black" stroke="black" points="411.78,-1505.14 419.94,-1511.9 417.78,-1501.53 411.78,-1505.14"/>
</g>
<!-- 2638937102817859916&#45;&gt;7631780582835109646 -->
<g id="edge52" class="edge">
<title>2638937102817859916&#45;&gt;7631780582835109646</title>
<path fill="none" stroke="black" d="M470.03,-1332.3C479.88,-1341.03 491.99,-1351.76 502.7,-1361.25"/>
<polygon fill="black" stroke="black" points="500.39,-1363.88 510.2,-1367.9 505.03,-1358.64 500.39,-1363.88"/>
</g>
<!-- 3739868735047590731 -->
<g id="node41" class="node">
<title>3739868735047590731</title>
<polygon fill="none" stroke="black" points="622,-1260 437,-1260 437,-1224 622,-1224 622,-1260"/>
<text text-anchor="middle" x="529.5" y="-1237" font-family="Helvetica,sans-Serif" font-size="20.00">Apply(Projection)</text>
</g>
<!-- 3739868735047590731&#45;&gt;2638937102817859916 -->
<g id="edge53" class="edge">
<title>3739868735047590731&#45;&gt;2638937102817859916</title>
<path fill="none" stroke="black" d="M509.97,-1260.3C500.12,-1269.03 488.01,-1279.76 477.3,-1289.25"/>
<polygon fill="black" stroke="black" points="474.97,-1286.64 469.8,-1295.9 479.61,-1291.88 474.97,-1286.64"/>
</g>
<!-- 9115370599504720350 -->
<g id="node42" class="node">
<title>9115370599504720350</title>
<polygon fill="none" stroke="black" points="678.5,-1188 418.5,-1188 418.5,-1152 678.5,-1152 678.5,-1188"/>
<text text-anchor="middle" x="548.5" y="-1165" font-family="Helvetica,sans-Serif" font-size="20.00">Projection(Assign, value)</text>
</g>
<!-- 9115370599504720350&#45;&gt;3739868735047590731 -->
<g id="edge55" class="edge">
<title>9115370599504720350&#45;&gt;3739868735047590731</title>
<path fill="none" stroke="black" d="M543.8,-1188.3C541.69,-1196.1 539.14,-1205.49 536.78,-1214.17"/>
<polygon fill="black" stroke="black" points="533.38,-1213.33 534.14,-1223.9 540.14,-1215.16 533.38,-1213.33"/>
</g>
<!-- &#45;305586692271587450 -->
<g id="node43" class="node">
<title>&#45;305586692271587450</title>
<polygon fill="none" stroke="black" points="615,-1116 324,-1116 324,-1080 615,-1080 615,-1116"/>
<text text-anchor="middle" x="469.5" y="-1093" font-family="Helvetica,sans-Serif" font-size="20.00">Assign(Assign, A5_3, Apply)</text>
</g>
<!-- &#45;305586692271587450&#45;&gt;2638937102817859916 -->
<g id="edge54" class="edge">
<title>&#45;305586692271587450&#45;&gt;2638937102817859916</title>
<path fill="none" stroke="black" d="M441.24,-1116.03C429.07,-1125.04 416.13,-1137.3 409.5,-1152 389.1,-1197.23 414.63,-1254.37 433.57,-1286.99"/>
<polygon fill="black" stroke="black" points="430.78,-1289.14 438.94,-1295.9 436.78,-1285.53 430.78,-1289.14"/>
</g>
<!-- &#45;305586692271587450&#45;&gt;9115370599504720350 -->
<g id="edge56" class="edge">
<title>&#45;305586692271587450&#45;&gt;9115370599504720350</title>
<path fill="none" stroke="black" d="M489.03,-1116.3C498.88,-1125.03 510.99,-1135.76 521.7,-1145.25"/>
<polygon fill="black" stroke="black" points="519.39,-1147.88 529.2,-1151.9 524.03,-1142.64 519.39,-1147.88"/>
</g>
<!-- &#45;4710859321433223967 -->
<g id="node44" class="node">
<title>&#45;4710859321433223967</title>
<polygon fill="none" stroke="black" points="641,-1044 456,-1044 456,-1008 641,-1008 641,-1044"/>
<text text-anchor="middle" x="548.5" y="-1021" font-family="Helvetica,sans-Serif" font-size="20.00">Apply(Projection)</text>
</g>
<!-- &#45;4710859321433223967&#45;&gt;&#45;305586692271587450 -->
<g id="edge57" class="edge">
<title>&#45;4710859321433223967&#45;&gt;&#45;305586692271587450</title>
<path fill="none" stroke="black" d="M528.97,-1044.3C519.12,-1053.03 507.01,-1063.76 496.3,-1073.25"/>
<polygon fill="black" stroke="black" points="493.97,-1070.64 488.8,-1079.9 498.61,-1075.88 493.97,-1070.64"/>
</g>
<!-- &#45;4897153575260321030 -->
<g id="node45" class="node">
<title>&#45;4897153575260321030</title>
<polygon fill="none" stroke="black" points="697.5,-972 437.5,-972 437.5,-936 697.5,-936 697.5,-972"/>
<text text-anchor="middle" x="567.5" y="-949" font-family="Helvetica,sans-Serif" font-size="20.00">Projection(Assign, value)</text>
</g>
<!-- &#45;4897153575260321030&#45;&gt;&#45;4710859321433223967 -->
<g id="edge59" class="edge">
<title>&#45;4897153575260321030&#45;&gt;&#45;4710859321433223967</title>
<path fill="none" stroke="black" d="M562.8,-972.3C560.69,-980.1 558.14,-989.49 555.78,-998.17"/>
<polygon fill="black" stroke="black" points="552.38,-997.33 553.14,-1007.9 559.14,-999.16 552.38,-997.33"/>
</g>
<!-- 8720340379230675495 -->
<g id="node46" class="node">
<title>8720340379230675495</title>
<polygon fill="none" stroke="black" points="634,-900 343,-900 343,-864 634,-864 634,-900"/>
<text text-anchor="middle" x="488.5" y="-877" font-family="Helvetica,sans-Serif" font-size="20.00">Assign(Assign, A5_2, Apply)</text>
</g>
<!-- 8720340379230675495&#45;&gt;&#45;305586692271587450 -->
<g id="edge58" class="edge">
<title>8720340379230675495&#45;&gt;&#45;305586692271587450</title>
<path fill="none" stroke="black" d="M460.24,-900.03C448.07,-909.04 435.13,-921.3 428.5,-936 408.1,-981.23 433.63,-1038.37 452.57,-1070.99"/>
<polygon fill="black" stroke="black" points="449.78,-1073.14 457.94,-1079.9 455.78,-1069.53 449.78,-1073.14"/>
</g>
<!-- 8720340379230675495&#45;&gt;&#45;4897153575260321030 -->
<g id="edge60" class="edge">
<title>8720340379230675495&#45;&gt;&#45;4897153575260321030</title>
<path fill="none" stroke="black" d="M508.03,-900.3C517.88,-909.03 529.99,-919.76 540.7,-929.25"/>
<polygon fill="black" stroke="black" points="538.39,-931.88 548.2,-935.9 543.03,-926.64 538.39,-931.88"/>
</g>
<!-- &#45;550399079984978363 -->
<g id="node47" class="node">
<title>&#45;550399079984978363</title>
<polygon fill="none" stroke="black" points="660,-828 475,-828 475,-792 660,-792 660,-828"/>
<text text-anchor="middle" x="567.5" y="-805" font-family="Helvetica,sans-Serif" font-size="20.00">Apply(Projection)</text>
</g>
<!-- &#45;550399079984978363&#45;&gt;8720340379230675495 -->
<g id="edge61" class="edge">
<title>&#45;550399079984978363&#45;&gt;8720340379230675495</title>
<path fill="none" stroke="black" d="M547.97,-828.3C538.12,-837.03 526.01,-847.76 515.3,-857.25"/>
<polygon fill="black" stroke="black" points="512.97,-854.64 507.8,-863.9 517.61,-859.88 512.97,-854.64"/>
</g>
<!-- &#45;6431685564532154117 -->
<g id="node48" class="node">
<title>&#45;6431685564532154117</title>
<polygon fill="none" stroke="black" points="716.5,-756 456.5,-756 456.5,-720 716.5,-720 716.5,-756"/>
<text text-anchor="middle" x="586.5" y="-733" font-family="Helvetica,sans-Serif" font-size="20.00">Projection(Assign, value)</text>
</g>
<!-- &#45;6431685564532154117&#45;&gt;&#45;550399079984978363 -->
<g id="edge63" class="edge">
<title>&#45;6431685564532154117&#45;&gt;&#45;550399079984978363</title>
<path fill="none" stroke="black" d="M581.8,-756.3C579.69,-764.1 577.14,-773.49 574.78,-782.17"/>
<polygon fill="black" stroke="black" points="571.38,-781.33 572.14,-791.9 578.14,-783.16 571.38,-781.33"/>
</g>
<!-- &#45;1563081563911360490 -->
<g id="node49" class="node">
<title>&#45;1563081563911360490</title>
<polygon fill="none" stroke="black" points="644.5,-684 370.5,-684 370.5,-648 644.5,-648 644.5,-684"/>
<text text-anchor="middle" x="507.5" y="-661" font-family="Helvetica,sans-Serif" font-size="20.00">Assign(Filter, A5_1, Apply)</text>
</g>
<!-- &#45;1563081563911360490&#45;&gt;8720340379230675495 -->
<g id="edge62" class="edge">
<title>&#45;1563081563911360490&#45;&gt;8720340379230675495</title>
<path fill="none" stroke="black" d="M479.24,-684.03C467.07,-693.04 454.13,-705.3 447.5,-720 427.1,-765.23 452.63,-822.37 471.57,-854.99"/>
<polygon fill="black" stroke="black" points="468.78,-857.14 476.94,-863.9 474.78,-853.53 468.78,-857.14"/>
</g>
<!-- &#45;1563081563911360490&#45;&gt;&#45;6431685564532154117 -->
<g id="edge64" class="edge">
<title>&#45;1563081563911360490&#45;&gt;&#45;6431685564532154117</title>
<path fill="none" stroke="black" d="M527.03,-684.3C536.88,-693.03 548.99,-703.76 559.7,-713.25"/>
<polygon fill="black" stroke="black" points="557.39,-715.88 567.2,-719.9 562.03,-710.64 557.39,-715.88"/>
</g>
<!-- &#45;1892395305593007521 -->
<g id="node50" class="node">
<title>&#45;1892395305593007521</title>
<polygon fill="none" stroke="black" points="675,-612 490,-612 490,-576 675,-576 675,-612"/>
<text text-anchor="middle" x="582.5" y="-589" font-family="Helvetica,sans-Serif" font-size="20.00">Apply(Projection)</text>
</g>
<!-- &#45;1892395305593007521&#45;&gt;&#45;1563081563911360490 -->
<g id="edge66" class="edge">
<title>&#45;1892395305593007521&#45;&gt;&#45;1563081563911360490</title>
<path fill="none" stroke="black" d="M563.96,-612.3C554.7,-620.95 543.34,-631.55 533.24,-640.97"/>
<polygon fill="black" stroke="black" points="530.75,-638.51 525.83,-647.9 535.52,-643.63 530.75,-638.51"/>
</g>
<!-- &#45;1726533286987589255 -->
<g id="node51" class="node">
<title>&#45;1726533286987589255</title>
<polygon fill="none" stroke="black" points="719,-540 476,-540 476,-504 719,-504 719,-540"/>
<text text-anchor="middle" x="597.5" y="-517" font-family="Helvetica,sans-Serif" font-size="20.00">Projection(Filter, value)</text>
</g>
<!-- &#45;1726533286987589255&#45;&gt;&#45;1892395305593007521 -->
<g id="edge67" class="edge">
<title>&#45;1726533286987589255&#45;&gt;&#45;1892395305593007521</title>
<path fill="none" stroke="black" d="M593.79,-540.3C592.14,-548.02 590.15,-557.29 588.31,-565.89"/>
<polygon fill="black" stroke="black" points="584.84,-565.38 586.17,-575.9 591.68,-566.85 584.84,-565.38"/>
</g>
<!-- &#45;4664768924851317831 -->
<g id="node52" class="node">
<title>&#45;4664768924851317831</title>
<polygon fill="none" stroke="black" points="606.5,-468 438.5,-468 438.5,-432 606.5,-432 606.5,-468"/>
<text text-anchor="middle" x="522.5" y="-445" font-family="Helvetica,sans-Serif" font-size="20.00">Filter(Filter, EQ)</text>
</g>
<!-- &#45;4664768924851317831&#45;&gt;&#45;1563081563911360490 -->
<g id="edge65" class="edge">
<title>&#45;4664768924851317831&#45;&gt;&#45;1563081563911360490</title>
<path fill="none" stroke="black" d="M496.38,-468.18C484.92,-477.31 472.69,-489.61 466.5,-504 446.88,-549.57 472.14,-606.6 490.83,-639.1"/>
<polygon fill="black" stroke="black" points="487.99,-641.18 496.12,-647.98 494,-637.6 487.99,-641.18"/>
</g>
<!-- &#45;4664768924851317831&#45;&gt;&#45;1726533286987589255 -->
<g id="edge68" class="edge">
<title>&#45;4664768924851317831&#45;&gt;&#45;1726533286987589255</title>
<path fill="none" stroke="black" d="M541.04,-468.3C550.3,-476.95 561.66,-487.55 571.76,-496.97"/>
<polygon fill="black" stroke="black" points="569.48,-499.63 579.17,-503.9 574.25,-494.51 569.48,-499.63"/>
</g>
<!-- 8783105062243938515 -->
<g id="node53" class="node">
<title>8783105062243938515</title>
<polygon fill="none" stroke="black" points="697.5,-396 501.5,-396 501.5,-360 697.5,-360 697.5,-396"/>
<text text-anchor="middle" x="599.5" y="-373" font-family="Helvetica,sans-Serif" font-size="20.00">EQ(Projection, A5)</text>
</g>
<!-- 8783105062243938515&#45;&gt;&#45;4664768924851317831 -->
<g id="edge70" class="edge">
<title>8783105062243938515&#45;&gt;&#45;4664768924851317831</title>
<path fill="none" stroke="black" d="M580.47,-396.3C570.96,-404.95 559.29,-415.55 548.93,-424.97"/>
<polygon fill="black" stroke="black" points="546.36,-422.58 541.31,-431.9 551.07,-427.76 546.36,-422.58"/>
</g>
<!-- &#45;6860995119064135098 -->
<g id="node54" class="node">
<title>&#45;6860995119064135098</title>
<polygon fill="none" stroke="black" points="741,-324 488,-324 488,-288 741,-288 741,-324"/>
<text text-anchor="middle" x="614.5" y="-301" font-family="Helvetica,sans-Serif" font-size="20.00">Projection(Filter, metric)</text>
</g>
<!-- &#45;6860995119064135098&#45;&gt;8783105062243938515 -->
<g id="edge71" class="edge">
<title>&#45;6860995119064135098&#45;&gt;8783105062243938515</title>
<path fill="none" stroke="black" d="M610.79,-324.3C609.14,-332.02 607.15,-341.29 605.31,-349.89"/>
<polygon fill="black" stroke="black" points="601.84,-349.38 603.17,-359.9 608.68,-350.85 601.84,-349.38"/>
</g>
<!-- &#45;6931510187993452712 -->
<g id="node55" class="node">
<title>&#45;6931510187993452712</title>
<polygon fill="none" stroke="black" points="641.5,-252 431.5,-252 431.5,-216 641.5,-216 641.5,-252"/>
<text text-anchor="middle" x="536.5" y="-229" font-family="Helvetica,sans-Serif" font-size="20.00">Filter(ReadCSV, EQ)</text>
</g>
<!-- &#45;6931510187993452712&#45;&gt;&#45;4664768924851317831 -->
<g id="edge69" class="edge">
<title>&#45;6931510187993452712&#45;&gt;&#45;4664768924851317831</title>
<path fill="none" stroke="black" d="M509.16,-252.23C497.39,-261.28 484.88,-273.52 478.5,-288 458.39,-333.61 485.18,-390.62 504.91,-423.11"/>
<polygon fill="black" stroke="black" points="502.21,-425.39 510.5,-431.99 508.13,-421.66 502.21,-425.39"/>
</g>
<!-- &#45;6931510187993452712&#45;&gt;&#45;6860995119064135098 -->
<g id="edge72" class="edge">
<title>&#45;6931510187993452712&#45;&gt;&#45;6860995119064135098</title>
<path fill="none" stroke="black" d="M555.78,-252.3C565.42,-260.95 577.23,-271.55 587.73,-280.97"/>
<polygon fill="black" stroke="black" points="585.66,-283.82 595.44,-287.9 590.34,-278.61 585.66,-283.82"/>
</g>
<!-- 3057540803088593469 -->
<g id="node56" class="node">
<title>3057540803088593469</title>
<polygon fill="none" stroke="black" points="740,-180 493,-180 493,-144 740,-144 740,-180"/>
<text text-anchor="middle" x="616.5" y="-157" font-family="Helvetica,sans-Serif" font-size="20.00">EQ(Projection, SW&#45;065)</text>
</g>
<!-- 3057540803088593469&#45;&gt;&#45;6931510187993452712 -->
<g id="edge74" class="edge">
<title>3057540803088593469&#45;&gt;&#45;6931510187993452712</title>
<path fill="none" stroke="black" d="M596.72,-180.3C586.75,-189.03 574.49,-199.76 563.64,-209.25"/>
<polygon fill="black" stroke="black" points="561.27,-206.68 556.05,-215.9 565.88,-211.94 561.27,-206.68"/>
</g>
<!-- 3558355750183300396 -->
<g id="node57" class="node">
<title>3558355750183300396</title>
<polygon fill="none" stroke="black" points="763.5,-108 485.5,-108 485.5,-72 763.5,-72 763.5,-108"/>
<text text-anchor="middle" x="624.5" y="-85" font-family="Helvetica,sans-Serif" font-size="20.00">Projection(ReadCSV, hwid)</text>
</g>
<!-- 3558355750183300396&#45;&gt;3057540803088593469 -->
<g id="edge75" class="edge">
<title>3558355750183300396&#45;&gt;3057540803088593469</title>
<path fill="none" stroke="black" d="M622.52,-108.3C621.64,-116.02 620.58,-125.29 619.6,-133.89"/>
<polygon fill="black" stroke="black" points="616.11,-133.56 618.45,-143.9 623.07,-134.36 616.11,-133.56"/>
</g>
<!-- &#45;7534151856008090645 -->
<g id="node58" class="node">
<title>&#45;7534151856008090645</title>
<polygon fill="none" stroke="black" points="594,-36 487,-36 487,0 594,0 594,-36"/>
<text text-anchor="middle" x="540.5" y="-13" font-family="Helvetica,sans-Serif" font-size="20.00">ReadCSV</text>
</g>
<!-- &#45;7534151856008090645&#45;&gt;&#45;6931510187993452712 -->
<g id="edge73" class="edge">
<title>&#45;7534151856008090645&#45;&gt;&#45;6931510187993452712</title>
<path fill="none" stroke="black" d="M509.73,-36.09C496.96,-44.98 483.5,-57.12 476.5,-72 468.04,-90 477.38,-167.03 483.5,-180 488.66,-190.92 497.04,-200.89 505.63,-209.16"/>
<polygon fill="black" stroke="black" points="503.4,-211.86 513.16,-215.97 508.1,-206.67 503.4,-211.86"/>
</g>
<!-- &#45;7534151856008090645&#45;&gt;3558355750183300396 -->
<g id="edge76" class="edge">
<title>&#45;7534151856008090645&#45;&gt;3558355750183300396</title>
<path fill="none" stroke="black" d="M561.26,-36.3C571.74,-45.03 584.61,-55.76 596,-65.25"/>
<polygon fill="black" stroke="black" points="594.05,-68.18 603.97,-71.9 598.53,-62.81 594.05,-68.18"/>
</g>
</g>
</svg>
